<?xml version="1.0" standalone="no"?>
<!DOCTYPE svg PUBLIC "-//W3C//DTD SVG 20010904//EN"
 "http://www.w3.org/TR/2001/REC-SVG-20010904/DTD/svg10.dtd">
<svg version="1.0" xmlns="http://www.w3.org/2000/svg"
 width="500.000000pt" height="500.000000pt" viewBox="0 0 500.000000 500.000000"
 preserveAspectRatio="xMidYMid meet">
<metadata>
Created by potrace 1.14, written by Peter Selinger 2001-2017
</metadata>
<g transform="translate(0.000000,500.000000) scale(0.100000,-0.100000)"
fill="#000000" stroke="none">
<path d="M2641 4937 c-8 -10 -61 -16 -203 -21 -106 -3 -231 -12 -278 -20 -70
-11 -87 -11 -99 -1 -11 11 -20 9 -50 -10 -20 -13 -84 -36 -143 -52 -124 -32
-132 -30 -226 51 -46 40 -60 46 -98 46 l-44 0 0 -72 c-1 -115 -44 -184 -152
-239 -84 -43 -129 -52 -267 -53 l-133 -2 -23 -62 c-12 -34 -27 -68 -33 -74 -8
-10 21 -13 141 -14 124 -1 166 -5 227 -23 41 -12 89 -25 105 -30 17 -4 59 -26
95 -48 36 -22 82 -48 102 -57 47 -23 98 -97 154 -228 94 -217 144 -419 189
-768 15 -113 28 -206 29 -207 2 -2 50 4 107 13 73 11 148 14 254 11 162 -5
196 -12 424 -87 67 -22 134 -40 149 -40 45 0 125 44 171 95 33 36 46 44 53 34
28 -43 48 -93 63 -164 15 -72 33 -105 57 -105 21 0 -9 136 -48 213 l-24 48 38
-7 c86 -14 162 -37 233 -70 l76 -36 -8 -46 c-10 -61 -11 -204 -1 -218 4 -6 43
-34 87 -63 290 -193 502 -460 599 -753 33 -101 51 -190 43 -212 -10 -25 -258
-184 -413 -263 -134 -69 -422 -189 -431 -180 -2 3 1 45 8 93 14 110 8 319 -12
358 -25 51 -34 52 -203 22 -327 -58 -693 -166 -880 -260 -119 -60 -114 -41
-64 -233 l35 -133 -36 5 c-20 2 -76 10 -126 16 -272 34 -524 104 -739 207 -90
44 -129 67 -135 84 -6 13 -10 17 -10 10 -1 -17 -131 74 -275 194 -185 155
-452 438 -532 564 -36 58 -38 125 -4 190 53 103 210 220 395 293 186 74 288
84 389 38 112 -51 322 -203 309 -224 -4 -7 1 -6 10 2 17 13 16 15 -1 25 -10 6
-59 41 -108 78 -49 37 -125 88 -169 113 -72 41 -86 45 -146 45 -172 0 -447
-115 -588 -246 -66 -61 -94 -101 -121 -172 l-18 -47 -22 48 c-86 193 -104 584
-35 785 50 147 92 192 253 275 155 80 209 92 417 91 204 0 205 -1 318 -85 149
-112 318 -301 467 -521 83 -123 117 -144 56 -34 -38 68 -117 175 -203 273 -32
37 -79 111 -117 185 -185 364 -244 402 -616 403 -162 0 -205 -3 -255 -18 -84
-26 -149 -61 -192 -104 -21 -21 -43 -36 -49 -35 -7 1 -17 -10 -22 -25 -6 -16
-27 -73 -47 -127 -20 -55 -51 -120 -69 -145 -18 -25 -43 -67 -55 -92 l-22 -47
22 -53 c19 -50 20 -60 9 -129 -6 -41 -14 -151 -17 -245 -25 -819 367 -1570
1067 -2042 161 -109 487 -254 680 -303 400 -101 788 -101 1191 0 116 29 348
114 450 165 452 227 840 616 1058 1059 89 183 159 375 192 527 12 57 32 125
45 151 39 77 64 185 64 274 0 69 -4 87 -23 116 -19 27 -26 58 -36 154 -11 112
-11 123 8 164 28 64 44 170 39 259 -5 88 -42 181 -98 244 l-32 37 7 100 c4 55
5 100 2 100 -15 0 -164 22 -179 26 -9 3 -30 28 -46 55 l-29 51 45 86 c38 75
43 93 40 133 l-5 46 67 -5 c60 -4 74 -1 131 26 85 41 124 74 116 96 -4 9 -33
29 -64 44 -47 22 -72 27 -135 27 -74 0 -77 1 -82 25 -5 29 -54 96 -75 105 -21
8 -39 -14 -85 -102 l-41 -77 -60 -12 c-33 -7 -63 -13 -67 -13 -7 -1 6 57 23
100 12 30 -6 82 -46 135 l-24 32 69 72 c39 39 70 78 70 85 0 23 -32 34 -116
41 -71 5 -84 3 -127 -19 l-48 -25 -11 24 c-12 25 -92 84 -114 84 -20 0 -31
-27 -42 -104 -6 -37 -13 -71 -16 -73 -9 -9 -81 20 -121 48 -63 45 -89 92 -89
155 1 30 -2 54 -5 54 -3 -1 -31 -9 -61 -20 -128 -45 -255 -7 -310 93 -13 23
-24 44 -26 46 -2 2 -23 -13 -47 -33 -50 -41 -57 -42 -118 -21 -49 18 -264 59
-383 74 -54 6 -82 15 -88 25 -11 20 -22 20 -37 3z m-327 -349 c-77 -96 -150
-178 -158 -178 -16 0 -3 41 24 76 48 61 173 184 187 184 7 0 -17 -37 -53 -82z
m346 77 c0 -3 -20 -32 -45 -65 l-44 -61 40 -40 c22 -22 46 -38 53 -36 7 3 26
27 41 54 60 101 116 167 115 136 0 -5 -27 -48 -60 -98 -33 -49 -60 -93 -60
-96 0 -4 10 -9 22 -12 17 -5 29 2 48 25 21 25 35 31 78 36 29 2 52 7 52 11 0
14 69 85 76 78 4 -4 -7 -27 -25 -52 -18 -25 -27 -45 -21 -45 6 0 22 -12 35
-26 36 -38 33 -78 -8 -119 l-33 -33 28 -6 c36 -7 45 -43 23 -90 -10 -20 -74
-96 -144 -169 -136 -142 -179 -193 -205 -244 -9 -18 -22 -33 -29 -33 -6 0 -29
-17 -51 -37 -38 -35 -38 -36 -22 -63 9 -16 16 -38 16 -51 0 -25 -26 -59 -47
-59 -17 0 -17 15 2 30 21 17 19 44 -5 65 -11 10 -20 26 -20 36 0 20 78 90 96
87 6 -2 34 31 62 72 28 41 111 139 186 218 75 78 138 153 142 167 9 38 -2 55
-35 55 -30 0 -30 -1 -28 -47 3 -73 -39 -138 -110 -170 -48 -22 -65 -25 -119
-20 l-64 6 -52 -64 c-48 -57 -78 -79 -78 -57 0 5 25 36 55 69 l55 61 -51 50
-50 50 -49 -71 c-28 -38 -50 -74 -50 -79 0 -4 -7 -8 -15 -8 -24 0 -19 11 44
103 53 75 59 90 54 120 -3 19 0 52 7 72 11 33 10 39 -7 57 -20 19 -20 19 -70
-49 -28 -37 -70 -93 -93 -123 -24 -30 -51 -73 -61 -95 -13 -30 -19 -35 -24
-23 -10 24 29 93 110 193 40 50 77 100 84 112 10 19 8 22 -12 25 -41 6 -33 47
25 133 29 43 61 83 70 89 22 13 36 0 17 -17 -8 -6 -23 -22 -32 -33 -18 -21
-18 -22 5 -21 13 1 33 -2 45 -6 17 -6 26 -1 44 25 41 61 89 105 89 83z m430
-185 c0 -5 -13 -31 -30 -57 -40 -62 -39 -89 0 -98 33 -7 54 -33 66 -78 10 -42
-40 -133 -152 -272 -52 -66 -109 -146 -125 -177 -27 -54 -49 -74 -49 -46 0 25
66 128 150 233 118 149 150 201 150 245 0 41 -20 65 -62 75 -50 13 -48 55 6
138 29 45 46 58 46 37z m945 -12 c64 -27 75 -45 13 -21 -110 41 -114 42 -91
43 13 0 47 -10 78 -22z m-77 -77 l-62 -58 50 4 c45 5 54 2 94 -29 29 -22 46
-43 47 -58 3 -24 2 -24 -6 -4 -13 30 -71 72 -108 80 -45 9 -101 -26 -140 -88
l-34 -53 68 -6 c37 -3 79 -11 93 -18 36 -20 110 -81 110 -92 0 -5 -25 11 -55
35 -63 52 -120 71 -182 61 -46 -7 -61 -23 -111 -122 l-21 -41 59 5 c49 5 77 0
145 -22 47 -15 85 -32 85 -37 0 -6 -8 -7 -17 -3 -126 52 -194 63 -246 41 -33
-13 -43 -26 -72 -91 -19 -42 -38 -87 -41 -102 -6 -23 -5 -25 12 -18 29 13 175
18 203 7 18 -6 -4 -9 -75 -8 -71 1 -106 -3 -117 -12 -9 -8 -21 -11 -26 -8 -5
4 -15 -2 -21 -11 -8 -14 -9 -10 -4 18 4 24 0 48 -11 70 l-16 34 21 -24 c11
-13 22 -22 24 -20 10 10 56 123 56 138 0 28 -38 79 -62 84 -20 4 -20 4 5 6 22
1 32 -6 49 -35 l21 -36 38 74 c22 40 39 76 39 79 0 3 27 47 60 97 33 51 60 96
60 101 0 20 -43 33 -88 28 -28 -3 -39 -1 -31 4 20 12 84 11 113 -2 23 -11 29
-7 77 40 29 28 59 51 66 51 8 0 -15 -26 -49 -59z m-503 -76 c33 -10 54 -20 47
-22 -7 -3 -33 2 -59 11 -26 9 -58 16 -72 16 -21 0 -23 2 -11 10 8 5 20 8 25 6
6 -2 37 -11 70 -21z m-65 -63 c-22 -23 -44 -52 -51 -63 -10 -19 -9 -20 13 -13
36 13 88 6 125 -17 33 -21 59 -56 49 -66 -3 -3 -8 2 -12 11 -9 24 -86 66 -122
66 -17 0 -37 -6 -44 -13 -7 -7 -21 -16 -30 -20 -10 -3 -31 -33 -47 -65 l-30
-59 72 1 c57 1 82 -4 117 -22 54 -27 95 -60 86 -69 -3 -4 -16 3 -29 14 -49 46
-90 63 -152 63 -86 0 -104 -13 -139 -97 -16 -40 -27 -75 -24 -78 2 -3 19 0 37
6 18 7 58 9 89 6 71 -6 183 -37 176 -48 -2 -5 -16 -4 -30 1 -60 23 -167 42
-202 35 -67 -13 -86 -29 -106 -92 -11 -32 -21 -52 -23 -46 -3 7 0 28 6 46 13
38 7 62 -22 95 -23 25 -46 28 -66 10 -11 -11 -13 -10 -9 2 3 8 18 16 35 18 24
2 36 -4 56 -28 30 -35 30 -35 66 68 15 42 31 84 36 92 28 45 84 173 80 180
-10 16 -75 23 -101 11 -13 -6 -24 -7 -24 -2 0 22 86 29 121 10 17 -9 24 -6 42
18 33 43 87 96 92 91 3 -3 -13 -23 -35 -46z m337 -44 c13 -12 23 -28 23 -36 0
-7 -12 1 -27 18 -22 26 -31 31 -55 26 -18 -3 -27 -2 -23 4 11 18 58 11 82 -12z
m800 -59 c54 -47 71 -73 27 -42 -28 20 -30 20 -74 4 -25 -10 -60 -27 -78 -38
l-33 -20 38 -7 c21 -3 48 -15 60 -25 29 -24 63 -81 63 -105 0 -11 -11 2 -25
31 -33 65 -61 84 -122 82 -41 -2 -56 -8 -102 -48 l-55 -46 41 -11 c90 -26 156
-85 186 -167 11 -31 -12 -8 -32 31 -37 71 -111 122 -179 122 -34 0 -46 -7 -95
-57 l-57 -57 58 -16 c63 -17 125 -55 210 -128 83 -71 53 -60 -39 14 -98 79
-148 103 -210 104 -46 0 -47 -1 -113 -81 -36 -44 -66 -84 -66 -87 0 -4 24 -8
53 -8 30 -1 76 -11 107 -25 67 -28 164 -88 156 -96 -3 -3 -14 1 -23 10 -10 8
-52 32 -93 53 -82 41 -201 62 -230 40 -10 -8 -9 -3 4 18 30 47 2 128 -39 112
-8 -3 -15 -1 -15 4 0 6 11 10 24 10 28 0 56 -33 56 -65 0 -15 11 -8 50 35 40
45 49 62 50 93 0 52 -15 77 -48 77 -23 1 -24 2 -10 11 27 15 56 -6 69 -52 l12
-40 59 58 c32 31 58 62 58 68 0 5 11 17 24 25 13 8 53 40 90 70 l66 55 -30 28
c-20 17 -42 27 -63 27 -25 1 -29 3 -15 10 20 12 64 -2 95 -32 l23 -21 59 31
c32 18 69 32 81 32 22 0 23 1 5 20 -10 11 -24 20 -32 20 -7 0 -13 5 -13 10 0
19 19 10 67 -31z m-1352 -125 c15 -14 24 -28 20 -32 -3 -4 -14 3 -23 14 -22
28 -51 37 -69 23 -7 -7 -17 -9 -20 -5 -10 10 17 26 43 26 12 0 33 -11 49 -26z
m985 -26 c11 -12 20 -33 19 -47 0 -23 -2 -22 -16 11 -11 28 -24 40 -47 47 -31
9 -31 9 -4 10 16 1 36 -8 48 -21z m-1724 -193 c0 -14 -7 -25 -14 -25 -7 0 -11
3 -9 8 2 4 7 15 10 25 9 25 15 21 13 -8z m1110 -43 c-7 -7 -46 9 -46 18 0 5
11 4 25 -2 14 -6 23 -13 21 -16z m-798 -20 c2 -7 -7 -16 -20 -21 -13 -5 -31
-18 -42 -30 -18 -20 -18 -21 0 -27 34 -12 54 -36 54 -64 0 -31 -34 -80 -56
-80 -19 0 -17 10 6 40 28 35 25 48 -15 71 -51 30 -46 64 14 105 37 25 52 26
59 6z m653 -48 c-48 -40 -41 -49 39 -46 58 3 70 7 75 23 4 10 15 24 26 29 25
14 24 5 -1 -20 -27 -27 -25 -40 5 -40 13 0 43 -7 64 -16 40 -16 40 -16 65 13
20 22 27 26 37 16 11 -11 10 -13 -3 -13 -21 0 -40 -24 -33 -41 3 -8 22 -24 41
-37 20 -13 34 -26 31 -28 -3 -3 -23 6 -45 20 -22 14 -42 22 -46 19 -3 -3 -13
0 -21 7 -24 20 -64 -15 -98 -83 -16 -32 -33 -57 -38 -57 -18 0 50 118 82 143
l32 25 -38 11 c-44 12 -57 7 -48 -17 5 -14 3 -15 -8 -4 -7 6 -21 12 -30 12
-19 0 -84 -68 -101 -106 -10 -21 -28 -33 -28 -18 0 13 62 94 90 118 l32 26
-61 0 c-59 0 -61 -1 -61 -26 0 -16 -5 -24 -12 -21 -22 7 -47 -12 -67 -51 -16
-29 -20 -32 -21 -16 0 26 34 71 60 79 11 4 20 13 20 22 0 9 -6 13 -14 10 -7
-3 -34 -8 -59 -12 -25 -4 -48 -13 -51 -21 -3 -7 -12 -11 -20 -8 -9 3 -30 -11
-55 -36 -46 -48 -54 -44 -15 8 l27 34 -33 -7 c-21 -5 -30 -4 -26 3 3 6 28 13
55 17 42 6 51 11 61 36 13 31 47 56 58 43 4 -4 1 -9 -6 -11 -17 -7 -42 -32
-42 -45 0 -5 7 -8 15 -4 8 3 37 8 65 12 27 4 50 10 50 15 0 15 52 69 67 69 9
0 3 -10 -16 -26z m-463 -21 c2 -7 -3 -13 -11 -13 -7 0 -22 -9 -32 -20 -19 -21
-45 -27 -45 -10 0 6 12 22 27 36 28 26 53 28 61 7z m-1816 -41 c118 -32 155
-62 243 -197 49 -74 125 -216 125 -231 0 -4 -44 36 -98 88 -81 79 -114 103
-194 143 -84 41 -107 49 -174 53 -201 13 -488 -71 -593 -173 l-36 -36 -12 38
c-16 54 -16 139 2 172 32 63 136 123 259 151 114 26 367 22 478 -8z m1219 -5
c-10 -9 -11 -8 -5 6 3 10 9 15 12 12 3 -3 0 -11 -7 -18z m752 0 c-26 -15 -81
-82 -95 -117 -7 -16 -12 -20 -15 -12 -6 15 61 117 86 132 9 5 23 9 31 9 10 0
7 -4 -7 -12z m700 -71 c-10 -13 -20 -20 -21 -15 -5 12 17 39 30 39 5 0 1 -11
-9 -24z m-889 -50 c-13 -34 -84 -60 -99 -36 -3 6 0 10 8 10 8 0 25 9 38 20 29
23 61 27 53 6z m934 -62 c38 -27 28 -58 -46 -135 -55 -58 -72 -70 -89 -65 -28
9 -35 31 -23 75 14 53 45 98 82 121 40 24 47 24 76 4z m517 -33 c7 -12 -44
-53 -56 -45 -13 8 -11 42 4 47 20 9 45 8 52 -2z m-667 -243 c-4 -26 -30 -43
-52 -35 -21 8 -21 53 1 66 25 13 55 -5 51 -31z m537 -168 c12 -19 -5 -48 -43
-72 -20 -14 -56 -44 -80 -67 -50 -49 -76 -50 -80 -4 -3 26 4 39 40 74 62 60
146 96 163 69z m-208 -226 c7 -19 -20 -49 -36 -40 -12 8 -15 39 -4 49 12 12
33 7 40 -9z m263 -199 c6 -8 10 -22 8 -32 -5 -25 -51 -25 -56 0 -8 42 23 63
48 32z"/>
<path d="M2470 4525 c-21 -26 -4 -81 30 -95 24 -10 33 -10 46 0 33 28 35 47 8
79 -28 34 -64 40 -84 16z"/>
<path d="M2843 4483 c-22 -8 -15 -51 12 -69 44 -29 99 12 75 56 -10 19 -55 26
-87 13z"/>
<path d="M2394 4459 c-3 -6 -1 -16 5 -22 8 -8 11 -5 11 11 0 24 -5 28 -16 11z"/>
<path d="M2591 4391 c-19 -12 -6 -41 18 -41 26 0 36 17 21 35 -14 17 -20 18
-39 6z"/>
<path d="M2755 4370 c-8 -14 13 -40 32 -40 7 0 16 7 20 16 10 26 -38 47 -52
24z"/>
<path d="M2557 4334 c-4 -4 -7 -16 -7 -26 0 -16 6 -19 33 -16 24 2 32 8 32 23
0 14 -8 21 -25 23 -14 2 -29 0 -33 -4z"/>
<path d="M2670 4316 c0 -16 -7 -26 -22 -30 -22 -5 -22 -6 -6 -23 13 -13 21
-14 29 -6 8 8 18 8 35 1 28 -13 54 -4 54 17 0 11 -7 15 -22 13 -19 -2 -24 2
-26 25 -4 36 -42 39 -42 3z"/>
<path d="M2787 4313 c-4 -3 -7 -15 -7 -25 0 -13 8 -18 30 -18 31 0 39 17 18
38 -13 13 -31 16 -41 5z"/>
<path d="M395 3914 c-27 -8 -67 -19 -87 -25 -36 -9 -38 -12 -38 -53 0 -35 9
-55 52 -116 l51 -74 18 75 c9 40 16 75 14 77 -1 2 7 32 20 68 12 35 22 64 21
63 0 -1 -23 -7 -51 -15z"/>
<path d="M2508 2933 c7 -3 16 -2 19 1 4 3 -2 6 -13 5 -11 0 -14 -3 -6 -6z"/>
<path d="M910 2374 c-125 -59 -280 -186 -280 -227 0 -53 238 -302 422 -441 64
-48 119 -95 121 -105 3 -9 5 -1 6 17 1 21 -3 31 -9 27 -34 -21 -471 377 -505
459 -15 35 -14 39 9 77 42 71 178 167 289 205 80 27 187 -5 312 -94 28 -19 55
-42 62 -49 6 -8 14 -10 16 -5 9 13 -174 132 -235 153 -80 28 -123 24 -208 -17z"/>
<path d="M3019 2297 c-19 -12 -45 -43 -57 -69 -31 -62 -23 -116 23 -166 28
-32 39 -36 91 -39 72 -5 137 24 172 77 44 66 7 156 -81 199 -56 27 -105 27
-148 -2z"/>
<path d="M1105 2166 c-65 -16 -143 -53 -154 -75 -7 -12 6 -35 56 -96 104 -127
193 -217 193 -193 0 10 -4 17 -8 14 -15 -9 -232 237 -232 261 0 19 36 41 100
64 85 29 130 22 182 -31 21 -21 38 -32 38 -26 0 20 -100 98 -120 95 -3 0 -28
-6 -55 -13z"/>
<path d="M1810 2079 c-79 -16 -78 -19 15 -54 156 -57 148 -52 142 -84 -3 -15
-25 -70 -47 -122 -23 -52 -44 -102 -47 -113 -12 -37 40 5 200 163 166 165 183
192 131 211 -31 12 -332 11 -394 -1z"/>
<path d="M3148 1984 c-67 -21 -118 -71 -118 -116 0 -80 122 -138 290 -138 128
0 200 41 200 114 0 37 -49 84 -126 122 -68 33 -174 41 -246 18z"/>
<path d="M2680 1946 c-135 -31 -170 -45 -170 -64 0 -42 23 -91 59 -126 35 -34
48 -40 93 -43 72 -5 135 26 162 81 17 35 18 46 8 94 -12 57 -27 83 -46 81 -6
-1 -54 -11 -106 -23z"/>
<path d="M1182 1730 c0 -19 2 -27 5 -17 2 9 2 25 0 35 -3 9 -5 1 -5 -18z"/>
<path d="M2055 1728 c-56 -20 -135 -80 -168 -127 -25 -36 -32 -56 -32 -92 0
-57 22 -85 77 -100 123 -33 388 115 388 217 0 31 -38 74 -84 95 -45 21 -133
24 -181 7z"/>
<path d="M1182 1505 c0 -16 2 -22 5 -12 2 9 2 23 0 30 -3 6 -5 -1 -5 -18z"/>
<path d="M1191 1434 c0 -11 3 -14 6 -6 3 7 2 16 -1 19 -3 4 -6 -2 -5 -13z"/>
</g>
</svg>
